<svg width="17" height="16" viewBox="0 0 17 16" fill="none" xmlns="http://www.w3.org/2000/svg">
<g clip-path="url(#clip0_8330_1004)">
<path d="M2.66667 5.66667V4.33333C2.66667 3.72889 2.81556 3.17111 3.11333 2.66C3.41111 2.14889 3.81556 1.74444 4.32667 1.44667C4.83778 1.14889 5.39556 1 6 1C6.60444 1 7.16222 1.14889 7.67333 1.44667C8.18444 1.74444 8.58889 2.14889 8.88667 2.66C9.18444 3.17111 9.33333 3.72889 9.33333 4.33333V5.66667H11.3333C11.52 5.66667 11.6778 5.73111 11.8067 5.86C11.9356 5.98889 12 6.14667 12 6.33333V14.3333C12 14.52 11.9356 14.6778 11.8067 14.8067C11.6778 14.9356 11.52 15 11.3333 15H0.666667C0.48 15 0.322222 14.9356 0.193333 14.8067C0.0644444 14.6778 0 14.52 0 14.3333V6.33333C0 6.14667 0.0644444 5.98889 0.193333 5.86C0.322222 5.73111 0.48 5.66667 0.666667 5.66667H2.66667ZM2.66667 7H1.33333V13.6667H10.6667V7H9.33333V8.33333H8V7H4V8.33333H2.66667V7ZM4 5.66667H8V4.33333C8 3.96889 7.91111 3.63333 7.73333 3.32667C7.55556 3.02 7.31333 2.77778 7.00667 2.6C6.7 2.42222 6.36444 2.33333 6 2.33333C5.63556 2.33333 5.3 2.42222 4.99333 2.6C4.68667 2.77778 4.44444 3.02 4.26667 3.32667C4.08889 3.63333 4 3.96889 4 4.33333V5.66667Z" fill="#F53E32"/>
</g>
<defs>
<clipPath id="clip0_8330_1004">
<rect width="16.48" height="16" fill="white" transform="matrix(1 0 0 -1 0 16)"/>
</clipPath>
</defs>
</svg>
