<svg width="16" height="15" viewBox="0 0 16 15" fill="none" xmlns="http://www.w3.org/2000/svg">
<path d="M5.55 6.4C5.93889 7.08889 6.41389 7.71389 6.975 8.275C7.53611 8.83611 8.16111 9.31111 8.85 9.7L9.58333 8.66667C9.70556 8.48889 9.86944 8.37778 10.075 8.33333C10.2806 8.28889 10.4778 8.31667 10.6667 8.41667C11.8556 9.07222 13.1278 9.45 14.4833 9.55C14.6944 9.57222 14.875 9.66111 15.025 9.81667C15.175 9.97222 15.25 10.1611 15.25 10.3833V14.1C15.25 14.3111 15.1778 14.4972 15.0333 14.6583C14.8889 14.8194 14.7111 14.9111 14.5 14.9333C14.0556 14.9778 13.6111 15 13.1667 15C11.4111 15 9.73333 14.6611 8.13333 13.9833C6.58889 13.3278 5.22222 12.4056 4.03333 11.2167C2.84444 10.0278 1.92222 8.66111 1.26667 7.11667C0.588889 5.51667 0.25 3.83889 0.25 2.08333C0.25 1.63889 0.272222 1.19444 0.316667 0.749999C0.338889 0.538888 0.430556 0.361111 0.591667 0.216666C0.752778 0.0722218 0.938889 -9.53674e-07 1.15 -9.53674e-07H4.86667C5.08889 -9.53674e-07 5.27778 0.0749989 5.43333 0.224999C5.58889 0.374999 5.67778 0.555554 5.7 0.766665C5.8 2.12222 6.17778 3.39444 6.83333 4.58333C6.93333 4.77222 6.96111 4.96944 6.91667 5.175C6.87222 5.38056 6.76111 5.54444 6.58333 5.66667L5.55 6.4ZM3.45 5.85L5.03333 4.71667C4.58889 3.75 4.28333 2.73333 4.11667 1.66667H1.91667V2.08333C1.91667 3.60555 2.21111 5.06667 2.8 6.46667C3.36667 7.81111 4.16944 9.00278 5.20833 10.0417C6.24722 11.0806 7.43889 11.8833 8.78333 12.45C10.1833 13.0389 11.6444 13.3333 13.1667 13.3333H13.5833V11.1333C12.5167 10.9667 11.5 10.6611 10.5333 10.2167L9.4 11.8C8.94444 11.6222 8.5 11.4111 8.06667 11.1667L8.01667 11.15C7.20556 10.6833 6.46667 10.1167 5.8 9.45C5.13333 8.78333 4.56667 8.04444 4.1 7.23333L4.08333 7.18333C3.83889 6.75 3.62778 6.30556 3.45 5.85Z" fill="#212529"/>
</svg>
