<svg width="15" height="15" viewBox="0 0 15 15" fill="none" xmlns="http://www.w3.org/2000/svg">
<g clip-path="url(#clip0_8336_522)">
<path d="M14.0898 1.8668H2.56318V1.68014C2.50095 1.24458 2.30651 0.879025 1.97984 0.58347C1.65318 0.287914 1.25651 0.140137 0.789844 0.140137H0.0898438V1.3068H0.789844C0.945399 1.3068 1.07762 1.35347 1.18651 1.4468C1.2954 1.54014 1.3654 1.66458 1.39651 1.82014L2.32984 9.66014C2.36095 10.1268 2.53984 10.5001 2.86651 10.7801C3.19318 11.0601 3.58984 11.2157 4.05651 11.2468H11.7565V10.0335H4.05651C3.90095 10.0335 3.76873 9.9868 3.65984 9.89347C3.55095 9.80014 3.48095 9.67569 3.44984 9.52014L3.40318 8.8668H12.8298L14.0898 1.8668ZM11.8498 7.70014H3.26318L2.70318 3.03347H12.6898L11.8498 7.70014ZM3.02984 12.9735C2.99873 13.2846 3.09984 13.5568 3.33318 13.7901C3.56651 14.0235 3.84651 14.1401 4.17318 14.1401C4.49984 14.1401 4.77207 14.0235 4.98984 13.7901C5.20762 13.5568 5.32429 13.2846 5.33984 12.9735C5.3554 12.6624 5.24651 12.3901 5.01318 12.1568C4.77984 11.9235 4.49984 11.8068 4.17318 11.8068C3.84651 11.8068 3.57429 11.9235 3.35651 12.1568C3.13873 12.3901 3.02984 12.6624 3.02984 12.9735ZM8.86318 12.9735C8.83207 13.2846 8.93318 13.5568 9.16651 13.7901C9.39984 14.0235 9.67984 14.1401 10.0065 14.1401C10.3332 14.1401 10.6054 14.0235 10.8232 13.7901C11.041 13.5568 11.1576 13.2846 11.1732 12.9735C11.1887 12.6624 11.0798 12.3901 10.8465 12.1568C10.6132 11.9235 10.3332 11.8068 10.0065 11.8068C9.67984 11.8068 9.40762 11.9235 9.18984 12.1568C8.97207 12.3901 8.86318 12.6624 8.86318 12.9735Z" fill="white"/>
</g>
<defs>
<clipPath id="clip0_8336_522">
<rect width="14" height="14" fill="white" transform="matrix(1 0 0 -1 0.0898438 14.1401)"/>
</clipPath>
</defs>
</svg>
