<svg width="46" height="45" viewBox="0 0 46 45" fill="none" xmlns="http://www.w3.org/2000/svg">
<path d="M0.0195312 0H40.0195C42.781 0 45.0195 2.23858 45.0195 5V40C45.0195 42.7614 42.781 45 40.0195 45H0.0195312V0Z" fill="#F53E32"/>
<g clip-path="url(#clip0_8342_14919)">
<path d="M24.6262 24.6017L27.1229 27.0984L26.2945 27.9267L23.7979 25.43C23.339 25.7956 22.8373 26.0756 22.2929 26.27C21.7173 26.4723 21.1262 26.5734 20.5195 26.5734C19.5706 26.5734 18.6879 26.3361 17.8712 25.8617C17.0779 25.395 16.4518 24.765 15.9929 23.9717C15.5106 23.155 15.2695 22.2723 15.2695 21.3234C15.2695 20.3745 15.5106 19.4917 15.9929 18.675C16.4518 17.8817 17.0779 17.2556 17.8712 16.7967C18.6879 16.3145 19.5706 16.0734 20.5195 16.0734C21.4684 16.0734 22.3512 16.3145 23.1679 16.7967C23.9612 17.2556 24.5912 17.8817 25.0579 18.675C25.5323 19.4917 25.7695 20.3745 25.7695 21.3234C25.7695 21.93 25.6684 22.5211 25.4662 23.0967C25.2718 23.6411 24.9918 24.1428 24.6262 24.6017ZM23.4479 24.17C23.8134 23.7967 24.0973 23.3689 24.2995 22.8867C24.5018 22.3889 24.6029 21.8678 24.6029 21.3234C24.6029 20.5845 24.4162 19.8961 24.0429 19.2584C23.6851 18.6439 23.199 18.1578 22.5845 17.8C21.9468 17.4267 21.2584 17.24 20.5195 17.24C19.7806 17.24 19.0923 17.4267 18.4545 17.8C17.8401 18.1578 17.354 18.6439 16.9962 19.2584C16.6229 19.8961 16.4362 20.5845 16.4362 21.3234C16.4362 22.0623 16.6229 22.7506 16.9962 23.3884C17.354 24.0028 17.8401 24.4889 18.4545 24.8467C19.0923 25.22 19.7806 25.4067 20.5195 25.4067C21.064 25.4067 21.5851 25.3056 22.0829 25.1034C22.5651 24.9011 22.9929 24.6173 23.3662 24.2517L23.4479 24.17Z" fill="white"/>
</g>
<defs>
<clipPath id="clip0_8342_14919">
<rect width="14.48" height="14" fill="white" transform="matrix(1 0 0 -1 15.2695 29)"/>
</clipPath>
</defs>
</svg>
