<svg width="155" height="29" viewBox="0 0 155 29" fill="none" xmlns="http://www.w3.org/2000/svg">
<path d="M0.820312 0.828857H21.6016V6.67358H9.2627V11.4236H19.8018V16.9158H9.2627V28.03H0.820312V0.828857ZM26.7202 28.03V0.828857H40.729C43.3267 0.828857 45.312 1.05151 46.6851 1.49683C48.0581 1.94214 49.1652 2.77091 50.0064 3.98315C50.8475 5.18302 51.2681 6.64884 51.2681 8.38062C51.2681 9.88973 50.9465 11.1947 50.3032 12.2957C49.66 13.3842 48.7756 14.2686 47.6499 14.949C46.9325 15.3819 45.9491 15.7406 44.6997 16.0251C45.7017 16.3591 46.4315 16.6931 46.8892 17.0271C47.1984 17.2498 47.6437 17.726 48.2251 18.4558C48.8189 19.1856 49.2147 19.7485 49.4126 20.1443L53.4761 28.03H43.9761L39.4859 19.7175C38.9168 18.6414 38.4097 17.9425 37.9644 17.6208C37.3583 17.2003 36.6717 16.99 35.9048 16.99H35.1626V28.03H26.7202ZM35.1626 11.8503H38.7066C39.09 11.8503 39.8322 11.7266 40.9331 11.4792C41.4898 11.3679 41.9413 11.0834 42.2876 10.6257C42.6463 10.1681 42.8257 9.64233 42.8257 9.04858C42.8257 8.17033 42.5474 7.49618 41.9907 7.02612C41.4341 6.55607 40.3889 6.32104 38.855 6.32104H35.1626V11.8503ZM73.6983 0.828857H82.085V17.0457C82.085 18.6537 81.8314 20.1752 81.3243 21.6101C80.8295 23.0326 80.044 24.282 78.9678 25.3582C77.904 26.422 76.7845 27.1703 75.6094 27.6033C73.9766 28.2094 72.016 28.5125 69.7276 28.5125C68.404 28.5125 66.9567 28.4197 65.3858 28.2341C63.8272 28.0486 62.5222 27.6837 61.4707 27.1394C60.4193 26.5828 59.4545 25.7973 58.5762 24.783C57.7103 23.7686 57.1166 22.7234 56.795 21.6472C56.2754 19.9154 56.0157 18.3816 56.0157 17.0457V0.828857H64.4024V17.4353C64.4024 18.9197 64.8106 20.0824 65.627 20.9236C66.4558 21.7524 67.6 22.1667 69.0596 22.1667C70.5069 22.1667 71.6387 21.7585 72.4551 20.9421C73.2839 20.1134 73.6983 18.9444 73.6983 17.4353V0.828857ZM88.4654 0.828857H96.8892V28.03H88.4654V0.828857ZM101.507 0.828857H127.057V7.54565H118.484V28.03H110.079V7.54565H101.507V0.828857ZM129.893 19.031L137.89 18.53C138.063 19.8289 138.416 20.8184 138.948 21.4988C139.814 22.5997 141.051 23.1501 142.659 23.1501C143.859 23.1501 144.78 22.8718 145.423 22.3152C146.079 21.7462 146.407 21.0906 146.407 20.3484C146.407 19.6433 146.098 19.0125 145.479 18.4558C144.861 17.8992 143.426 17.3735 141.174 16.8787C137.488 16.0499 134.86 14.949 133.289 13.5759C131.705 12.2029 130.914 10.4526 130.914 8.32495C130.914 6.92716 131.316 5.60978 132.12 4.3728C132.936 3.12345 134.155 2.14624 135.775 1.44116C137.408 0.723714 139.641 0.36499 142.473 0.36499C145.949 0.36499 148.596 1.0144 150.415 2.31323C152.245 3.59969 153.334 5.65308 153.68 8.47339L145.757 8.93726C145.547 7.71265 145.102 6.82202 144.421 6.26538C143.754 5.70874 142.826 5.43042 141.638 5.43042C140.661 5.43042 139.925 5.64071 139.43 6.06128C138.935 6.46948 138.688 6.97046 138.688 7.56421C138.688 7.99715 138.892 8.3868 139.3 8.73315C139.696 9.09188 140.636 9.42586 142.121 9.73511C145.795 10.5268 148.423 11.3308 150.006 12.1472C151.602 12.9513 152.759 13.9532 153.476 15.1531C154.206 16.3529 154.571 17.6951 154.571 19.1794C154.571 20.9236 154.088 22.5317 153.124 24.0037C152.159 25.4757 150.81 26.5951 149.079 27.3621C147.347 28.1166 145.164 28.4939 142.529 28.4939C137.903 28.4939 134.699 27.6033 132.918 25.822C131.136 24.0408 130.128 21.7771 129.893 19.031Z" fill="#F7E8AA"/>
</svg>
