<svg width="16" height="19" viewBox="0 0 16 19" fill="none" xmlns="http://www.w3.org/2000/svg">
<path d="M7.52941 15.8664L11.6622 11.7168C12.4207 10.9695 12.9339 10.0882 13.2016 9.07317C13.4581 8.0804 13.4581 7.08763 13.2016 6.09487C12.9339 5.07979 12.4235 4.19578 11.6706 3.44284C10.9176 2.6899 10.0336 2.17957 9.01856 1.91186C8.0258 1.6553 7.03303 1.6553 6.04026 1.91186C5.02518 2.17957 4.14118 2.6899 3.38824 3.44284C2.63529 4.19578 2.12497 5.07979 1.85725 6.09487C1.6007 7.08763 1.6007 8.0804 1.85725 9.07317C2.12497 10.0882 2.63808 10.9695 3.3966 11.7168L7.52941 15.8664ZM7.52941 18.2256L2.20863 12.9048C1.23817 11.9455 0.585621 10.8077 0.25098 9.49147C-0.0836601 8.21983 -0.0836601 6.9482 0.25098 5.67657C0.585621 4.36031 1.23538 3.21975 2.20026 2.25487C3.16514 1.28999 4.30571 0.63465 5.62196 0.288855C6.89359 -0.0346313 8.16523 -0.0346313 9.43686 0.288855C10.7531 0.63465 11.8937 1.28999 12.8586 2.25487C13.8234 3.21975 14.4732 4.36031 14.8078 5.67657C15.1425 6.9482 15.1425 8.21983 14.8078 9.49147C14.4732 10.8077 13.8207 11.9455 12.8502 12.9048L7.52941 18.2256ZM7.52941 9.25722C7.83059 9.25722 8.10945 9.18193 8.36601 9.03134C8.62257 8.88075 8.82614 8.67718 8.97673 8.42062C9.12732 8.16406 9.20261 7.88519 9.20261 7.58402C9.20261 7.28284 9.12732 7.00397 8.97673 6.74742C8.82614 6.49086 8.62257 6.28729 8.36601 6.1367C8.10945 5.98611 7.83059 5.91082 7.52941 5.91082C7.22824 5.91082 6.94937 5.98611 6.69281 6.1367C6.43625 6.28729 6.23268 6.49086 6.08209 6.74742C5.9315 7.00397 5.85621 7.28284 5.85621 7.58402C5.85621 7.88519 5.9315 8.16406 6.08209 8.42062C6.23268 8.67718 6.43625 8.88075 6.69281 9.03134C6.94937 9.18193 7.22824 9.25722 7.52941 9.25722ZM7.52941 10.9304C6.92706 10.9304 6.36932 10.7798 5.85621 10.4787C5.34309 10.1775 4.93595 9.77034 4.63477 9.25722C4.33359 8.7441 4.18301 8.18358 4.18301 7.57565C4.18301 6.96772 4.33359 6.40999 4.63477 5.90245C4.93595 5.39491 5.34309 4.99055 5.85621 4.68938C6.36932 4.3882 6.92706 4.23761 7.52941 4.23761C8.13176 4.23761 8.6895 4.3882 9.20261 4.68938C9.71573 4.99055 10.1229 5.39491 10.4241 5.90245C10.7252 6.40999 10.8758 6.96772 10.8758 7.57565C10.8758 8.18358 10.7252 8.7441 10.4241 9.25722C10.1229 9.77034 9.71573 10.1775 9.20261 10.4787C8.6895 10.7798 8.13176 10.9304 7.52941 10.9304Z" fill="#F53E32"/>
</svg>
