<svg width="19" height="16" viewBox="0 0 19 16" fill="none" xmlns="http://www.w3.org/2000/svg">
<path d="M17.5686 0.61061C17.8029 0.61061 18.0009 0.691482 18.1626 0.853225C18.3244 1.01497 18.4052 1.21296 18.4052 1.44721V14.8328C18.4052 15.0671 18.3244 15.2651 18.1626 15.4268C18.0009 15.5886 17.8029 15.6694 17.5686 15.6694H2.5098C2.27556 15.6694 2.07756 15.5886 1.91582 15.4268C1.75407 15.2651 1.6732 15.0671 1.6732 14.8328V13.9962H16.732V4.208L10.0392 10.2315L1.6732 2.70211V1.44721C1.6732 1.21296 1.75407 1.01497 1.91582 0.853225C2.07756 0.691482 2.27556 0.61061 2.5098 0.61061H17.5686ZM6.69281 10.6498V12.323H0V10.6498H6.69281ZM4.18301 6.46682V8.14002H0V6.46682H4.18301ZM16.3639 2.28381H3.71451L10.0392 7.9727L16.3639 2.28381Z" fill="#F53E32"/>
</svg>
