<svg width="21" height="25" viewBox="0 0 21 25" fill="none" xmlns="http://www.w3.org/2000/svg">
<path d="M5.32078 11.0357C5.7112 11.7273 6.18806 12.3547 6.75137 12.9181C7.31468 13.4814 7.94213 13.9582 8.63373 14.3486L9.36993 13.3113C9.49264 13.1328 9.65717 13.0212 9.86353 12.9766C10.0699 12.932 10.2679 12.9599 10.4575 13.0603C11.6511 13.7184 12.9283 14.0977 14.2892 14.1981C14.5011 14.2204 14.6824 14.3096 14.8329 14.4658C14.9835 14.6219 15.0588 14.8116 15.0588 15.0347V18.7659C15.0588 18.9778 14.9863 19.1647 14.8413 19.3264C14.6963 19.4882 14.5178 19.5802 14.3059 19.6025C13.8597 19.6471 13.4135 19.6694 12.9673 19.6694C11.2049 19.6694 9.52052 19.3292 7.91425 18.6488C6.36375 17.9907 4.99172 17.0648 3.79817 15.8713C2.60462 14.6777 1.67878 13.3057 1.02065 11.7552C0.340218 10.1489 0 8.46455 0 6.70211C0 6.25593 0.0223094 5.80974 0.0669281 5.36355C0.0892375 5.15161 0.181264 4.97314 0.343007 4.82813C0.504749 4.68312 0.69159 4.61061 0.903529 4.61061H4.63477C4.85786 4.61061 5.04749 4.6859 5.20366 4.83649C5.35983 4.98708 5.44906 5.16834 5.47137 5.38028C5.57176 6.74115 5.95102 8.01837 6.60915 9.21192C6.70954 9.40155 6.73743 9.59954 6.69281 9.8059C6.64819 10.0123 6.53664 10.1768 6.35817 10.2995L5.32078 11.0357ZM3.21255 10.4836L4.80209 9.34577C4.3559 8.37532 4.04915 7.35466 3.88183 6.28381H1.6732V6.70211C1.6732 8.23031 1.9688 9.69715 2.56 11.1026C3.12889 12.4524 3.93481 13.6487 4.97778 14.6917C6.02074 15.7346 7.21708 16.5405 8.5668 17.1094C9.97229 17.7006 11.4391 17.9962 12.9673 17.9962H13.3856V15.7876C12.3148 15.6203 11.2941 15.3135 10.3237 14.8673L9.18588 16.4569C8.72854 16.2784 8.28235 16.0665 7.84732 15.8211L7.79712 15.8043C6.98283 15.3358 6.24105 14.767 5.57176 14.0977C4.90248 13.4284 4.33359 12.6866 3.8651 11.8723L3.84837 11.8221C3.60296 11.3871 3.39102 10.9409 3.21255 10.4836Z" fill="#F53E32"/>
</svg>
